<svg xmlns="http://www.w3.org/2000/svg" id="Слой_1" version="1" viewBox="0 0 1270 520" width="127" height="52">
  <path d="M91 451c-29-15-52-35-67-62-16-27-24-58-24-93 0-49 9-92 28-130s43-68 75-89 67-31 106-31c36 0 63 9 82 28 18 18 28 43 28 73 0 20-4 37-11 49-8 12-18 19-31 19-9 0-17-3-22-7s-8-11-8-19l2-16 3-24c0-31-16-46-49-46-22 0-43 7-63 22-20 14-36 35-48 63s-19 61-19 99c0 40 12 71 34 93s55 33 99 33c22 0 43-3 66-8a503 503 0 0 0 86-29c5 0 9 2 12 6s4 9 4 16c0 20-11 35-33 45a351 351 0 0 1-147 30c-39 0-74-8-103-22z" class="st1"/>
  <path d="M347 450a90 90 0 0 1-18-59 163 163 0 0 1 67-133c21-15 43-22 66-22 7 0 12 1 14 4 3 3 5 8 7 15l22-1c16 0 24 5 24 17 0 7-2 24-7 50-8 38-12 65-12 80 0 5 2 9 4 12s6 5 10 5c6 0 14-5 23-13s21-21 36-40c4-4 9-7 14-7 4 0 8 2 10 6s4 10 4 17c0 13-3 24-10 31-13 17-28 31-43 43a74 74 0 0 1-45 17c-11 0-21-3-30-11-9-7-16-18-21-31-17 28-39 42-65 42-21 1-38-7-50-22zm89-41c6-9 11-20 14-34l19-92c-14 0-27 5-39 15-12 11-22 24-29 41-7 16-10 34-10 53 0 10 2 18 6 23s10 7 17 7c8 0 15-4 22-13z" class="st1"/>
  <path d="M858 365c2 4 4 9 4 16 0 13-4 24-10 31-15 18-31 32-47 44a94 94 0 0 1-56 17c-16 0-29-5-38-15s-13-24-13-43c0-9 2-26 7-50 4-21 7-36 7-44 0-5-2-8-6-8s-10 6-18 17-16 26-24 44c-8 19-15 38-20 59-6 26-22 40-47 40-10 0-17-4-20-11-3-8-5-20-5-39l1-26v-40c0-51 6-104 16-160 11-56 26-103 47-140 20-38 45-57 74-57 15 0 27 7 37 20 9 13 14 30 14 51 0 34-10 69-29 105-20 36-52 78-96 127l-2 53c11-28 23-51 37-69 13-18 27-31 40-38 13-8 25-12 36-12 22 0 33 11 33 33 0 13-4 36-11 70-7 29-10 48-10 58 0 13 5 20 15 20 6 0 14-5 23-13s22-21 37-40c4-4 9-7 14-7 4 1 7 3 10 7zM679 75a955 955 0 0 0-38 165c21-24 38-51 51-79 14-29 21-55 21-78 0-11-2-19-4-25s-6-8-10-8c-6 0-13 8-20 25z" class="st1"/>
  <path d="M1054 365c3 4 4 9 4 16 0 13-3 24-9 31-13 15-30 29-53 42-22 12-46 19-72 19-35 0-62-10-81-29-20-19-29-45-29-78 0-23 4-44 14-64s23-36 40-48c17-11 37-17 59-17 19 0 34 6 46 17 12 12 18 27 18 47 0 23-9 43-25 59s-45 30-84 40c8 15 24 23 48 23 15 0 32-6 51-16 19-11 36-24 50-41 4-5 8-7 13-7 4 0 8 2 10 6zm-167-57c-9 14-13 31-13 52v1c20-5 35-12 47-21 11-10 17-21 17-33 0-6-2-11-6-15-3-4-8-6-14-6-12 0-23 7-31 22z" class="st1"/>
  <path d="M1251 365c2 4 4 9 4 16 0 13-4 24-10 31-12 15-30 29-52 42-23 12-47 19-73 19-34 0-62-10-81-29s-29-45-29-78c0-23 5-44 15-64 9-20 23-36 40-48 17-11 36-17 58-17 19 0 35 6 47 17 11 12 17 27 17 47 0 23-8 43-25 59s-44 30-84 40c9 15 25 23 48 23 15 0 32-6 51-16 19-11 36-24 50-41 4-5 9-7 14-7 4 0 7 2 10 6zm-168-57c-8 14-13 31-13 52v1c20-5 36-12 47-21 11-10 17-21 17-33 0-6-2-11-5-15-4-4-9-6-15-6-12 0-22 7-31 22z" class="st1"/>
</svg>
